<svg xmlns="http://www.w3.org/2000/svg" width="32" height="32" viewBox="0 0 256 256"><path fill="#FF5D01" d="M163.008 18.929c2.077 4.474 3.307 9.96 3.307 15.857c0 11.498-5.308 21.24-13.143 25.673c-3.653 2.07-7.764 2.796-11.918 2.07c-3.921-.726-7.587-2.981-10.557-6.282c-5.66-6.282-8.63-15.857-8.63-26.399c0-11.498 5.308-21.24 13.143-25.673c3.653-2.07 7.764-2.796 11.918-2.07c3.921.726 7.587 2.981 10.557 6.282c2.034 2.264 3.742 5.033 5.323 10.542Zm-46.155 41.853c.726 1.122 1.452 2.07 2.178 3.018c1.452 1.848 2.904 3.47 4.356 4.84c2.904 2.796 5.808 4.84 8.63 6.282c5.66 2.796 11.235 3.018 16.542.222c1.452-.726 2.904-1.67 4.356-2.796c.726-.574 1.452-1.122 2.178-1.848c.726-.726 1.452-1.452 2.178-2.178c3.921-4.474 7.587-10.06 11.918-17.927c3.307-5.992 6.96-13.05 11.235-21.24l.222-.37c10.557-19.17 22.633-41.117 36.38-60.287c-9.004 4.474-18.19 10.06-27.458 16.583c-17.268 12.109-34.536 27.24-50.252 43.823c-15.716 16.583-29.636 34.51-40.193 52.437c-5.308 8.88-9.83 17.927-13.143 26.807c-1.67 4.474-3.046 8.88-4.13 13.354c-.726 3.018-1.452 5.992-1.87 8.88c-.222 1.452-.447 2.904-.447 4.356c-.222 1.452-.222 2.904-.222 4.356v2.07c0 .726 0 1.452.222 2.178c0 1.452.222 2.904.447 4.356c.222 1.452.447 2.904.87 4.356c.447 1.452.87 2.904 1.317 4.356c1.87 5.766 4.582 11.498 8.63 16.583c4.047 5.033 9.356 9.507 16.047 12.62c6.691 3.018 14.278 4.84 22.633 4.84c8.355 0 17.49-1.822 27.458-5.766c19.92-7.614 42.553-23.31 65.968-45.67c23.415-22.362 47.607-51.316 69.337-84.1c21.73-32.783 41.017-69.794 54.16-108.443c-9.004 4.474-18.19 10.06-27.458 16.583c-17.268 12.109-34.536 27.24-50.252 43.823c-15.716 16.583-29.636 34.51-40.193 52.437c-5.308 8.88-9.83 17.927-13.143 26.807c-3.307 8.88-5.808 17.927-6.96 26.399c-.447 4.474-.87 8.88-.447 12.924c0 2.07.222 4.14.447 6.21c.222 2.07.87 4.14 1.452 6.21c1.87 8.352 6.034 16.583 13.143 23.31c7.109 6.726 16.542 11.92 27.458 14.716c10.916 2.796 23.359 2.796 36.38-.222c13.02-3.018 26.731-8.88 40.193-17.037c26.954-16.583 54.16-43.823 76.793-77.818c-8.63 41.117-25.537 79.666-47.392 112.449c-21.855 32.783-49.06 59.56-76.793 77.818c-13.866 9.207-27.731 16.583-41.645 21.24c-13.866 4.84-27.731 7.614-40.87 7.614c-13.143 0-25.537-2.774-36.38-8.352c-10.916-5.766-20.272-14.646-26.954-26.399c-6.691-11.92-10.557-26.399-10.557-43.823c0-17.424 3.866-37.371 11.918-59.56c7.974-22.363 19.92-46.893 35.636-72.566c15.716-25.673 35.636-52.437 59.051-79.666c23.415-27.24 50.252-54.334 79.697-79.666c-8.63 41.117-25.537 79.666-47.392 112.449c-21.855 32.783-49.06 59.56-76.793 77.818c-13.866 9.207-27.731 16.583-41.645 21.24c-13.866 4.84-27.731 7.614-40.87 7.614c-13.143 0-25.537-2.774-36.38-8.352c-10.916-5.766-20.272-14.646-26.954-26.399c-3.307-5.992-5.808-12.62-7.587-19.726c-.87-3.47-1.452-7.166-1.87-10.936c-.222-1.848-.447-3.696-.447-5.544c0-1.848-.222-3.696 0-5.544c0-1.848.222-3.696.447-5.544c.222-1.848.447-3.696.87-5.544c.87-3.696 1.87-7.392 3.046-11.088c2.178-7.392 5.308-14.716 9.004-22.14c7.587-14.716 17.49-29.654 29.636-44.37c12.146-14.716 26.731-29.654 43.097-44.37c16.542-14.716 34.536-29.654 54.16-43.823c9.83-7.166 19.92-13.788 30.14-20.07c-20.272 6.282-40.87 15.162-61.142 26.399c-40.87 22.362-81.149 54.334-116.785 91.705c-17.713 18.653-33.81 38.38-47.607 58.45c-6.96 10.06-13.143 20.07-18.72 30.13c-5.56 10.06-10.34 20.07-14.278 29.654c-3.921 9.507-7.109 18.653-9.356 27.24c-2.178 8.352-3.653 16.583-3.653 23.31c0 6.726.87 12.62 2.904 17.037c1.87 4.474 4.582 7.614 8.63 9.507c4.047 1.848 9.004 2.07 14.726.222c5.808-1.848 12.394-5.766 19.92-11.498c15.048-11.498 32.316-30.13 50.252-53.559c17.936-23.31 36.38-51.316 53.648-81.304c17.268-29.988 33.31-62.358 46.453-94.723c13.143-32.365 23.359-64.73 29.636-94.723c-20.272 6.282-40.87 15.162-61.142 26.399c-40.87 22.362-81.149 54.334-116.785 91.705c-17.713 18.653-33.81 38.38-47.607 58.45c-6.96 10.06-13.143 20.07-18.72 30.13c-5.56 10.06-10.34 20.07-14.278 29.654c-1.87 4.474-3.653 8.88-5.308 13.354c-1.452 4.474-2.904 8.88-4.13 13.354c-1.87 8.88-3.307 17.927-3.307 26.399c0 8.352 1.452 16.583 4.356 23.31c2.904 6.726 7.587 12.62 13.866 16.583c6.282 3.97 14.278 6.282 23.359 6.282c9.004 0 19.026-2.07 29.636-6.282c21.182-8.352 44.541-25.673 67.42-49.085c22.88-23.31 45.429-53.559 65.349-87.118c19.92-33.56 36.826-70.52 48.744-108.443c11.918-37.924 18.72-76.304 18.72-112.449c0-4.474 0-8.88-.222-13.354c0-4.474-.222-8.88-.447-13.354c-9.004 4.474-18.19 10.06-27.458 16.583c-17.268 12.109-34.536 27.24-50.252 43.823c-15.716 16.583-29.636 34.51-40.193 52.437Z"/></svg>